<svg preserveAspectRatio="none" width="100%" height="100%" overflow="visible" style="display: block;" viewBox="0 0 37 37" fill="none" xmlns="http://www.w3.org/2000/svg">
<g id="material-symbols:directions-run-rounded">
<path id="Vector" d="M19.5439 33.0744V25.5575L16.3868 22.5507L15.2217 27.7374C15.1215 28.1383 14.9025 28.4455 14.5647 28.659C14.227 28.8724 13.8571 28.9411 13.4552 28.8649L6.0135 27.3615C5.58754 27.2864 5.26181 27.0734 5.0363 26.7226C4.8108 26.3718 4.73563 25.9834 4.8108 25.5575C4.88597 25.1315 5.09894 24.7998 5.44973 24.5623C5.80052 24.3247 6.18889 24.2556 6.61485 24.3548L12.3277 25.5575L14.7331 13.3801L12.027 14.4325V18.0406C12.027 18.4666 11.8827 18.8239 11.594 19.1125C11.3054 19.4012 10.9486 19.545 10.5236 19.544C10.0987 19.543 9.74188 19.3987 9.45323 19.111C9.16458 18.8234 9.02026 18.4666 9.02026 18.0406V13.4553C9.02026 13.1546 9.10194 12.8855 9.26531 12.648C9.42867 12.4104 9.64767 12.2285 9.92228 12.1023L14.9586 9.92236C15.8356 9.54651 16.481 9.30246 16.895 9.19021C17.3089 9.07796 17.6907 9.02133 18.0405 9.02033C18.5667 9.02033 19.0553 9.15814 19.5063 9.43376C19.9573 9.70938 20.3207 10.0727 20.5963 10.5237L22.0996 12.9291C22.6258 13.781 23.3089 14.5202 24.1488 15.1466C24.9886 15.773 25.9593 16.1864 27.0608 16.3869C27.4868 16.4621 27.8441 16.65 28.1327 16.9506C28.4214 17.2513 28.5652 17.6146 28.5642 18.0406C28.5632 18.4666 28.4188 18.8173 28.1312 19.093C27.8436 19.3686 27.4993 19.4813 27.0984 19.4312C25.7453 19.2308 24.48 18.8108 23.3024 18.1714C22.1247 17.532 21.1225 16.7367 20.2956 15.7855L19.3936 20.2957L22.0996 22.8514C22.25 23.0017 22.3627 23.1711 22.4379 23.3596C22.5131 23.548 22.5507 23.7419 22.5507 23.9414V33.0744C22.5507 33.5003 22.4063 33.8576 22.1177 34.1463C21.829 34.4349 21.4722 34.5788 21.0473 34.5778C20.6223 34.5768 20.2655 34.4324 19.9769 34.1448C19.6882 33.8571 19.5439 33.5003 19.5439 33.0744ZM20.2956 8.26864C19.4687 8.26864 18.7611 7.97448 18.1728 7.38616C17.5845 6.79784 17.2898 6.08974 17.2888 5.26188C17.2878 4.43402 17.5825 3.72643 18.1728 3.13911C18.7632 2.55179 19.4707 2.25713 20.2956 2.25513C21.1204 2.25312 21.8285 2.54778 22.4199 3.13911C23.0112 3.73044 23.3054 4.43803 23.3024 5.26188C23.2993 6.08573 23.0052 6.79383 22.4199 7.38616C21.8346 7.97849 21.1265 8.27265 20.2956 8.26864Z" fill="var(--fill-0, white)"/>
</g>
</svg>
