<svg preserveAspectRatio="none" width="100%" height="100%" overflow="visible" style="display: block;" viewBox="0 0 37 37" fill="none" xmlns="http://www.w3.org/2000/svg">
<g id="material-symbols:battery-android-frame-5">
<path id="Vector" d="M6.01351 27.0608C4.7607 27.0608 3.6958 26.6223 2.81883 25.7454C1.94186 24.8684 1.50338 23.8035 1.50338 22.5507V13.5304C1.50338 12.2776 1.94186 11.2127 2.81883 10.3357C3.6958 9.45876 4.7607 9.02027 6.01351 9.02027H26.3091C27.5619 9.02027 28.6268 9.45876 29.5038 10.3357C30.3808 11.2127 30.8193 12.2776 30.8193 13.5304V22.5507C30.8193 23.8035 30.3808 24.8684 29.5038 25.7454C28.6268 26.6223 27.5619 27.0608 26.3091 27.0608H6.01351ZM6.01351 24.0541H26.3091C26.7351 24.0541 27.0924 23.9097 27.381 23.6211C27.6697 23.3324 27.8135 22.9756 27.8125 22.5507V13.5304C27.8125 13.1044 27.6682 12.7476 27.3795 12.46C27.0909 12.1724 26.7341 12.028 26.3091 12.027H6.01351C5.58756 12.027 5.23075 12.1714 4.94311 12.46C4.65546 12.7486 4.51114 13.1055 4.51013 13.5304V22.5507C4.51013 22.9766 4.65446 23.3339 4.94311 23.6226C5.23176 23.9112 5.58856 24.0551 6.01351 24.0541ZM32.3226 21.799V14.2821H33.0743C33.5003 14.2821 33.8576 14.4264 34.1462 14.7151C34.4349 15.0037 34.5787 15.3605 34.5777 15.7855V20.2956C34.5777 20.7216 34.4334 21.0789 34.1447 21.3675C33.8561 21.6562 33.4993 21.8 33.0743 21.799H32.3226ZM6.01351 22.5507V13.5304H21.0473V22.5507H6.01351Z" fill="var(--fill-0, white)"/>
</g>
</svg>
