<svg preserveAspectRatio="none" width="100%" height="100%" overflow="visible" style="display: block;" viewBox="0 0 37 37" fill="none" xmlns="http://www.w3.org/2000/svg">
<g id="material-symbols:network-intelligence">
<path id="Vector" d="M12.1398 30.0676C11.8642 30.0676 11.6076 29.999 11.3701 29.8617C11.1325 29.7243 10.9506 29.5299 10.8243 29.2783L7.89274 24.0541H10.0726L11.576 27.0609H15.0338V25.5575H12.478L10.9747 22.5507H7.06589L4.92357 18.7923C4.87346 18.667 4.82986 18.5417 4.79278 18.4164C4.75569 18.2912 4.73665 18.1659 4.73565 18.0406C4.73565 17.9404 4.79829 17.6898 4.92357 17.2889L7.06589 13.5305H10.9747L12.478 10.5237H15.0338V9.02032H11.576L10.0726 12.0271H7.89274L10.8243 6.80284C10.9496 6.55227 11.131 6.35834 11.3686 6.22103C11.6061 6.08372 11.8637 6.01457 12.1413 6.01356H15.7855C16.2114 6.01356 16.5687 6.15789 16.8574 6.44654C17.146 6.73518 17.2899 7.09199 17.2889 7.51694V13.5305H15.0338L13.5304 15.0338H17.2889V19.544H13.9814L12.478 16.5372H9.02028L7.5169 18.0406H11.576L13.0794 21.0473H17.2889V28.5642C17.2889 28.9902 17.1445 29.3475 16.8559 29.6361C16.5672 29.9248 16.2104 30.0686 15.7855 30.0676H12.1398ZM20.2956 30.0676C19.8697 30.0676 19.5129 29.9233 19.2252 29.6346C18.9376 29.346 18.7932 28.9892 18.7922 28.5642V21.0473H23.0017L24.5051 18.0406H28.5642L27.0608 16.5372H23.603L22.0997 19.544H18.7922V15.0338H22.5507L21.0473 13.5305H18.7922V7.51694C18.7922 7.09098 18.9366 6.73418 19.2252 6.44654C19.5139 6.15889 19.8707 6.01457 20.2956 6.01356H23.9413C24.2169 6.01356 24.474 6.08272 24.7125 6.22103C24.9511 6.35934 25.1325 6.55328 25.2568 6.80284L28.1884 12.0271H26.0085L24.5051 9.02032H21.0473V10.5237H23.603L25.1064 13.5305H29.0152L31.1575 17.2889C31.2076 17.4142 31.2517 17.5395 31.2898 17.6647C31.3279 17.79 31.3465 17.9153 31.3454 18.0406C31.3454 18.1408 31.2828 18.3914 31.1575 18.7923L29.0152 22.5507H25.1064L23.603 25.5575H21.0473V27.0609H24.5051L26.0085 24.0541H28.1884L25.2568 29.2783C25.1315 29.5289 24.9496 29.7233 24.711 29.8617C24.4725 30 24.2159 30.0686 23.9413 30.0676H20.2956Z" fill="var(--fill-0, white)"/>
</g>
</svg>
