<svg preserveAspectRatio="none" width="100%" height="100%" overflow="visible" style="display: block;" viewBox="0 0 37 37" fill="none" xmlns="http://www.w3.org/2000/svg">
<g id="material-symbols:sports-mma-rounded">
<path id="Vector" d="M12.027 31.5709C11.6011 31.5709 11.2443 31.4266 10.9566 31.138C10.669 30.8493 10.5246 30.4925 10.5236 30.0676V25.5574H25.5574V30.0676C25.5574 30.4935 25.4131 30.8508 25.1245 31.1395C24.8358 31.4281 24.479 31.5719 24.0541 31.5709H12.027ZM28.5642 12.027V16.5372C28.5642 16.6123 28.5391 16.7126 28.489 16.8378L27.3615 22.5507C27.2863 23.0017 27.0793 23.365 26.7406 23.6406C26.4018 23.9162 26.0074 24.0541 25.5574 24.0541H10.5236C10.0726 24.0541 9.67774 23.9162 9.33898 23.6406C9.00022 23.365 8.79376 23.0017 8.71959 22.5507L7.59206 16.8378C7.54194 16.7126 7.51689 16.6123 7.51689 16.5372V7.51689C7.51689 6.69003 7.81155 5.98244 8.40087 5.39412C8.9902 4.8058 9.69779 4.51114 10.5236 4.51014H22.5507C23.3775 4.51014 24.0856 4.8048 24.6749 5.39412C25.2643 5.98345 25.5584 6.69104 25.5574 7.51689V12.027C25.5574 11.6011 25.7018 11.2443 25.9904 10.9566C26.2791 10.669 26.6359 10.5247 27.0608 10.5236C27.4858 10.5226 27.8431 10.667 28.1327 10.9566C28.4224 11.2463 28.5662 11.6031 28.5642 12.027ZM14.2821 15.0338H18.7922C19.4186 15.0338 19.9513 14.8148 20.3903 14.3768C20.8293 13.9388 21.0483 13.4061 21.0473 12.7787C21.0463 12.1513 20.8273 11.6191 20.3903 11.1821C19.9533 10.7451 19.4206 10.5257 18.7922 10.5236H14.2821C13.6557 10.5236 13.1235 10.7431 12.6855 11.1821C12.2475 11.6211 12.028 12.1533 12.027 12.7787C12.026 13.4041 12.2455 13.9368 12.6855 14.3768C13.1255 14.8168 13.6577 15.0358 14.2821 15.0338Z" fill="var(--fill-0, white)"/>
</g>
</svg>
